<svg version="1.1" viewBox="0.0 0.0 944.50656167979 945.8845144356956" fill="none" stroke="none" stroke-linecap="square" stroke-miterlimit="10" xmlns:xlink="http://www.w3.org/1999/xlink" xmlns="http://www.w3.org/2000/svg"><clipPath id="p.0"><path d="m0 0l944.5066 0l0 945.8845l-944.5066 0l0 -945.8845z" clip-rule="nonzero"/></clipPath><g clip-path="url(#p.0)"><path fill="#000000" fill-opacity="0.0" d="m0 0l944.5066 0l0 945.8845l-944.5066 0z" fill-rule="evenodd"/><path fill="#000000" fill-opacity="0.4134" d="m46.272964 470.1706l0 0c0 -235.72556 191.09334 -426.81888 426.8189 -426.81888l0 0c113.1994 0 221.76245 44.968292 301.80652 125.01235c80.04407 80.04408 125.01239 188.60713 125.01239 301.80652l0 0c0 235.72559 -191.09332 426.8189 -426.8189 426.8189l0 0c-235.72556 0 -426.8189 -191.09332 -426.8189 -426.8189z" fill-rule="evenodd"/><path fill="#000000" d="m830.7506 620.7008l52.094543 -23.590576l-240.15753 -530.2677l-52.094482 23.590553z" fill-rule="evenodd"/><path fill="#ff0000" d="m794.5248 679.34644l52.094482 -23.590576l-270.96063 -598.2362l-52.094482 23.59055z" fill-rule="evenodd"/><path fill="#ffff00" d="m811.4856 716.78735l-43.411865 19.658691l-12.6154175 -4.750305l-292.91757 -646.65643l52.09445 -23.59055z" fill-rule="evenodd"/><path fill="#ff0000" d="m368.65356 848.13916l-43.411896 19.658691l-12.615448 -4.750244l-243.37424 -537.2706l52.09449 -23.590546z" fill-rule="evenodd"/><path fill="#ffffff" d="m384.56403 883.252l52.094482 -23.590515l-278.83466 -615.5276l-52.094482 23.590546z" fill-rule="evenodd"/><path fill="#ff0000" d="m450.17352 889.4934l52.094482 -23.590576l-304.8189 -672.9764l-52.094498 23.59056z" fill-rule="evenodd"/><path fill="#ff0000" d="m612.9317 832.93945l-43.411926 19.658752l-12.6154175 -4.750305l-317.2325 -700.32574l52.094482 -23.590546z" fill-rule="evenodd"/><path fill="#ff0000" d="m611.9211 847.1155l64.787415 -29.385803l-327.05515 -722.1102l-64.787384 29.385826z" fill-rule="evenodd"/><path fill="#ff0000" d="m674.2414 829.6722l52.094482 -23.590576l-333.6063 -736.5354l-52.094482 23.590553z" fill-rule="evenodd"/><path fill="#000000" d="m0 472.43964l0 0c0 -260.92194 211.51901 -472.44095 472.44095 -472.44095l0 0c125.2991 0 245.46634 49.774883 334.0662 138.37476c88.59985 88.59985 138.37476 208.76706 138.37476 334.0662l0 0c0 260.92194 -211.51904 472.44092 -472.44095 472.44092l0 0c-260.92194 0 -472.44095 -211.51898 -472.44095 -472.44092zm87.27874 0l0 0c0 212.71924 172.443 385.16223 385.1622 385.16223c212.71921 0 385.1622 -172.443 385.1622 -385.16223l0 0c0 -212.71921 -172.443 -385.1622 -385.1622 -385.1622l0 0c-212.71921 0 -385.1622 172.443 -385.1622 385.1622z" fill-rule="evenodd"/><path stroke="#000000" stroke-width="1.0" stroke-linejoin="round" stroke-linecap="butt" d="m0 472.43964l0 0c0 -260.92194 211.51901 -472.44095 472.44095 -472.44095l0 0c125.2991 0 245.46634 49.774883 334.0662 138.37476c88.59985 88.59985 138.37476 208.76706 138.37476 334.0662l0 0c0 260.92194 -211.51904 472.44092 -472.44095 472.44092l0 0c-260.92194 0 -472.44095 -211.51898 -472.44095 -472.44092zm87.27874 0l0 0c0 212.71924 172.443 385.16223 385.1622 385.16223c212.71921 0 385.1622 -172.443 385.1622 -385.16223l0 0c0 -212.71921 -172.443 -385.1622 -385.1622 -385.1622l0 0c-212.71921 0 -385.1622 172.443 -385.1622 385.1622z" fill-rule="evenodd"/><path fill="#cfe2f3" d="m37.795277 472.44095l0 0c0 -240.04817 194.5975 -434.64566 434.64566 -434.64566l0 0c115.27518 0 225.82901 45.792896 307.3409 127.30478c81.51184 81.51187 127.30475 192.06569 127.30475 307.34088l0 0c0 240.04819 -194.59747 434.64566 -434.64566 434.64566l0 0c-240.04817 0 -434.64566 -194.59747 -434.64566 -434.64566zm5.154896 0l0 0c0 237.2012 192.28958 429.49075 429.49078 429.49075c237.2012 0 429.49075 -192.28955 429.49075 -429.49075l0 0c0 -237.2012 -192.28955 -429.49078 -429.49075 -429.49078l0 0c-237.2012 0 -429.49078 192.28958 -429.49078 429.49078z" fill-rule="evenodd"/><path stroke="#000000" stroke-width="1.0" stroke-linejoin="round" stroke-linecap="butt" d="m37.795277 472.44095l0 0c0 -240.04817 194.5975 -434.64566 434.64566 -434.64566l0 0c115.27518 0 225.82901 45.792896 307.3409 127.30478c81.51184 81.51187 127.30475 192.06569 127.30475 307.34088l0 0c0 240.04819 -194.59747 434.64566 -434.64566 434.64566l0 0c-240.04817 0 -434.64566 -194.59747 -434.64566 -434.64566zm5.154896 0l0 0c0 237.2012 192.28958 429.49075 429.49078 429.49075c237.2012 0 429.49075 -192.28955 429.49075 -429.49075l0 0c0 -237.2012 -192.28955 -429.49078 -429.49075 -429.49078l0 0c-237.2012 0 -429.49078 192.28958 -429.49078 429.49078z" fill-rule="evenodd"/><path fill="#cfe2f3" d="m523.9398 447.50714l-30.580048 13.849945l14.264557 31.483704l-28.787018 13.037842l-14.264557 -31.483704l-30.580048 13.849976l-13.041931 -28.785187l30.580078 -13.849945l-14.264557 -31.483704l28.786987 -13.037842l14.264557 31.483704l30.580078 -13.849976z" fill-rule="evenodd"/><path fill="#000000" d="m347.71915 866.9383l251.08664 0l0 40.094543l-251.08664 0z" fill-rule="evenodd"/><path stroke="#000000" stroke-width="1.0" stroke-linejoin="round" stroke-linecap="butt" d="m347.71915 866.9383l251.08664 0l0 40.094543l-251.08664 0z" fill-rule="evenodd"/><path fill="#000000" fill-opacity="0.0" d="m517.6539 847.5173l83.653564 -17.385803l21.039368 101.25983l-83.653564 17.385864z" fill-rule="evenodd"/><path fill="#f3f3f3" d="m559.0337 922.5878l-12.425171 -59.800964l7.9091187 -1.6437378l10.959839 52.748413l29.448853 -6.1204224l1.465332 7.0525513l-37.35797 7.76416z" fill-rule="nonzero"/><path fill="#000000" fill-opacity="0.0" d="m389.41357 844.62756l120.6929 5.3858643l-4.6929016 103.30707l-120.6929 -5.385803z" fill-rule="evenodd"/><path fill="#f3f3f3" d="m449.11392 905.3162l0.32543945 -7.1644897l25.835815 1.105957l-1.0288696 22.64856q-6.1627502 4.4797363 -12.5937805 6.6013794q-6.4303284 2.106018 -13.095551 1.8085938q-8.991058 -0.40118408 -16.168 -4.584656q-7.1612854 -4.1828003 -10.577148 -11.623718q-3.4151306 -7.456543 -3.0067139 -16.447266q0.4048767 -8.91272 4.470215 -16.457703q4.0816345 -7.5599365 11.244843 -10.994019q7.1632385 -3.434082 16.279144 -3.0272827q6.6184387 0.29534912 11.859009 2.687561q5.256897 2.3773804 8.110718 6.352295q2.8701172 3.960022 4.1829224 10.180969l-7.380371 1.6726685q-1.1623535 -4.7127686 -3.0859375 -7.4731445q-1.9079895 -2.7597046 -5.6287537 -4.521057q-3.7044678 -1.7763062 -8.32486 -1.9824829q-5.5413513 -0.24725342 -9.660797 1.2581177q-4.103821 1.5060425 -6.7105103 4.142456q-2.60672 2.6364136 -4.129944 5.8685913q-2.582489 5.546631 -2.8831482 12.164795q-0.3708496 8.163452 2.18927 13.783203q2.5601196 5.61969 7.8085327 8.528442q5.249115 2.8931274 11.289978 3.1627197q5.2447815 0.23400879 10.315674 -1.557312q5.0871887 -1.8062744 7.781891 -3.9695435l0.51620483 -11.363281l-17.935272 -0.800354z" fill-rule="nonzero"/><path fill="#000000" fill-opacity="0.0" d="m340.25415 827.94824l107.68506 21.606323l-20.346466 101.4173l-107.68503 -21.606262z" fill-rule="evenodd"/><path fill="#f3f3f3" d="m354.2239 914.3039l12.01416 -59.884888l20.63562 4.140442q6.9857483 1.4016113 10.490356 2.9972534q4.9107666 2.2124023 7.9176025 6.0507812q3.93161 4.948242 5.0246277 11.653687q1.1114197 6.6931763 -0.4960022 14.705383q-1.3677063 6.817322 -4.018219 11.767639q-2.6505127 4.9503174 -5.842224 7.91156q-3.1733093 2.9489746 -6.5448914 4.3442383q-3.35318 1.3829956 -7.7413635 1.5702515q-4.385132 0.17193604 -9.823608 -0.9192505l-21.616058 -4.337097zm9.3524475 -5.470154l12.776611 2.5635376q5.928711 1.1895142 9.520325 0.76275635q3.5916443 -0.42681885 6.001129 -2.0310059q3.3690186 -2.2563477 5.899719 -6.688843q2.533783 -4.447876 3.8953247 -11.234497q1.8840332 -9.390991 -0.19937134 -15.052124q-2.0650024 -5.67334 -6.1328735 -8.274414q-2.9406128 -1.8649292 -10.00296 -3.2819214l-12.577454 -2.5235596l-9.18045 45.76007z" fill-rule="nonzero"/><path fill="#000000" fill-opacity="0.0" d="m457.24643 848.7797l97.07089 -6.2677l6.677124 103.212585l-97.07086 6.2677z" fill-rule="evenodd"/><path fill="#f3f3f3" d="m507.14276 927.64856l-3.4780884 -53.762573l-20.08319 1.2967529l-0.46502686 -7.1881104l48.305664 -3.1190186l0.46502686 7.1880493l-20.161133 1.3018188l3.4780884 53.762573l-8.06134 0.5205078z" fill-rule="nonzero"/></g></svg>