<svg version="1.1" viewBox="0.0 0.0 961.3123359580053 964.2152230971128" fill="none" stroke="none" stroke-linecap="square" stroke-miterlimit="10" xmlns:xlink="http://www.w3.org/1999/xlink" xmlns="http://www.w3.org/2000/svg"><clipPath id="p.0"><path d="m0 0l961.3123 0l0 964.2152l-961.3123 0l0 -964.2152z" clip-rule="nonzero"/></clipPath><g clip-path="url(#p.0)"><path fill="#000000" fill-opacity="0.0" d="m0 0l961.3123 0l0 964.2152l-961.3123 0z" fill-rule="evenodd"/><path fill="#000000" fill-opacity="0.4134" d="m54.48819 475.6181l0 0c0 -235.72556 191.09332 -426.81888 426.8189 -426.81888l0 0c113.19937 0 221.76248 44.96829 301.80655 125.01236c80.04407 80.04407 125.01233 188.60713 125.01233 301.80652l0 0c0 235.72559 -191.09332 426.8189 -426.81888 426.8189l0 0c-235.72559 0 -426.8189 -191.09332 -426.8189 -426.8189z" fill-rule="evenodd"/><path fill="#000000" d="m838.9659 626.1483l52.094482 -23.590576l-240.15747 -530.2677l-52.094482 23.590553z" fill-rule="evenodd"/><path fill="#ff0000" d="m802.74 684.79395l52.094482 -23.590576l-270.96063 -598.2362l-52.094482 23.590553z" fill-rule="evenodd"/><path fill="#ffff00" d="m819.7008 722.23486l-43.411865 19.658691l-12.615356 -4.750305l-292.91763 -646.65643l52.094513 -23.590553z" fill-rule="evenodd"/><path fill="#ff0000" d="m376.86877 853.5867l-43.411896 19.658691l-12.615448 -4.750305l-243.37422 -537.2706l52.094482 -23.590546z" fill-rule="evenodd"/><path fill="#ffffff" d="m392.77927 888.6995l52.094482 -23.590515l-278.83466 -615.5276l-52.09449 23.59056z" fill-rule="evenodd"/><path fill="#ff0000" d="m458.38873 894.9409l52.094482 -23.590576l-304.81888 -672.9764l-52.094498 23.59056z" fill-rule="evenodd"/><path fill="#ff0000" d="m621.1469 838.38696l-43.411926 19.658752l-12.6154175 -4.750305l-317.23248 -700.32574l52.094467 -23.590546z" fill-rule="evenodd"/><path fill="#ff0000" d="m620.1363 852.563l64.787415 -29.385803l-327.0551 -722.1102l-64.787415 29.385834z" fill-rule="evenodd"/><path fill="#ff0000" d="m682.4566 835.1197l52.094482 -23.590576l-333.6063 -736.5354l-52.094482 23.590553z" fill-rule="evenodd"/><path fill="#000000" d="m8.215223 477.88715l0 0c0 -260.92194 211.51901 -472.44095 472.44095 -472.44095l0 0c125.299164 0 245.46634 49.774887 334.0662 138.37474c88.59985 88.59987 138.37476 208.76707 138.37476 334.06622l0 0c0 260.92194 -211.51898 472.44092 -472.44095 472.44092l0 0c-260.92194 0 -472.44095 -211.51898 -472.44095 -472.44092zm87.27874 0l0 0c0 212.71918 172.443 385.16217 385.1622 385.16217c212.71921 0 385.1622 -172.443 385.1622 -385.16217l0 0c0 -212.71921 -172.443 -385.1622 -385.1622 -385.1622l0 0c-212.71921 0 -385.1622 172.443 -385.1622 385.1622z" fill-rule="evenodd"/><path stroke="#000000" stroke-width="1.0" stroke-linejoin="round" stroke-linecap="butt" d="m8.215223 477.88715l0 0c0 -260.92194 211.51901 -472.44095 472.44095 -472.44095l0 0c125.299164 0 245.46634 49.774887 334.0662 138.37474c88.59985 88.59987 138.37476 208.76707 138.37476 334.06622l0 0c0 260.92194 -211.51898 472.44092 -472.44095 472.44092l0 0c-260.92194 0 -472.44095 -211.51898 -472.44095 -472.44092zm87.27874 0l0 0c0 212.71918 172.443 385.16217 385.1622 385.16217c212.71921 0 385.1622 -172.443 385.1622 -385.16217l0 0c0 -212.71921 -172.443 -385.1622 -385.1622 -385.1622l0 0c-212.71921 0 -385.1622 172.443 -385.1622 385.1622z" fill-rule="evenodd"/><path fill="#cfe2f3" d="m46.010498 477.88846l0 0c0 -240.04819 194.59749 -434.6457 434.64566 -434.6457l0 0c115.27524 0 225.82901 45.792892 307.3409 127.30476c81.5119 81.51189 127.30475 192.0657 127.30475 307.3409l0 0c0 240.04819 -194.59747 434.64566 -434.64566 434.64566l0 0c-240.04817 0 -434.64566 -194.59747 -434.64566 -434.64566zm5.1548996 0l0 0c0 237.2012 192.28958 429.49075 429.49075 429.49075c237.2012 0 429.49075 -192.28955 429.49075 -429.49075l0 0c0 -237.20122 -192.28955 -429.49078 -429.49075 -429.49078l0 0c-237.20119 0 -429.49075 192.28957 -429.49075 429.49078z" fill-rule="evenodd"/><path stroke="#000000" stroke-width="1.0" stroke-linejoin="round" stroke-linecap="butt" d="m46.010498 477.88846l0 0c0 -240.04819 194.59749 -434.6457 434.64566 -434.6457l0 0c115.27524 0 225.82901 45.792892 307.3409 127.30476c81.5119 81.51189 127.30475 192.0657 127.30475 307.3409l0 0c0 240.04819 -194.59747 434.64566 -434.64566 434.64566l0 0c-240.04817 0 -434.64566 -194.59747 -434.64566 -434.64566zm5.1548996 0l0 0c0 237.2012 192.28958 429.49075 429.49075 429.49075c237.2012 0 429.49075 -192.28955 429.49075 -429.49075l0 0c0 -237.20122 -192.28955 -429.49078 -429.49075 -429.49078l0 0c-237.20119 0 -429.49075 192.28957 -429.49075 429.49078z" fill-rule="evenodd"/><path fill="#cfe2f3" d="m532.155 452.95462l-30.580048 13.849976l14.264557 31.483673l-28.786987 13.037872l-14.264557 -31.483704l-30.580078 13.849945l-13.041901 -28.785156l30.580048 -13.849945l-14.264557 -31.483704l28.786987 -13.037842l14.264557 31.483704l30.580109 -13.849976z" fill-rule="evenodd"/><path fill="#000000" d="m355.9344 872.3858l251.08661 0l0 40.094482l-251.08661 0z" fill-rule="evenodd"/><path stroke="#000000" stroke-width="1.0" stroke-linejoin="round" stroke-linecap="butt" d="m355.9344 872.3858l251.08661 0l0 40.094482l-251.08661 0z" fill-rule="evenodd"/><path fill="#000000" fill-opacity="0.0" d="m525.86914 852.9648l83.6535 -17.385803l21.039368 101.25983l-83.6535 17.385864z" fill-rule="evenodd"/><path fill="#f3f3f3" d="m567.2489 928.0353l-12.425171 -59.800903l7.9091187 -1.6437378l10.959839 52.748413l29.448853 -6.1204224l1.465332 7.0525513l-37.35797 7.764099z" fill-rule="nonzero"/><path fill="#000000" fill-opacity="0.0" d="m397.62878 850.0751l120.69293 5.3858643l-4.692932 103.30707l-120.6929 -5.385803z" fill-rule="evenodd"/><path fill="#f3f3f3" d="m457.32913 910.76373l0.32546997 -7.1644897l25.835785 1.105957l-1.0288391 22.64856q-6.162781 4.4796753 -12.593811 6.6013794q-6.430298 2.106018 -13.095551 1.8085938q-8.991058 -0.40118408 -16.167969 -4.584656q-7.161316 -4.1828003 -10.577148 -11.623718q-3.4151611 -7.456543 -3.0067444 -16.447266q0.4048767 -8.91272 4.470215 -16.457703q4.081665 -7.5599365 11.244873 -10.994019q7.163208 -3.434082 16.279144 -3.0272827q6.618408 0.29534912 11.859009 2.687561q5.256897 2.3773804 8.110687 6.352295q2.8701477 3.960022 4.1829224 10.180969l-7.380371 1.6726074q-1.162323 -4.7127075 -3.085907 -7.4730835q-1.9079895 -2.7597046 -5.628784 -4.521057q-3.7044373 -1.7763062 -8.32486 -1.9824829q-5.5413513 -0.24725342 -9.660767 1.2580566q-4.103821 1.5061035 -6.710541 4.142517q-2.6066895 2.6364136 -4.129944 5.8685913q-2.582489 5.546631 -2.8831177 12.164795q-0.3708496 8.163452 2.18927 13.783203q2.560089 5.61969 7.808502 8.528442q5.249115 2.8931274 11.289978 3.1626587q5.2447815 0.23406982 10.315674 -1.557251q5.087219 -1.8062744 7.7819214 -3.9695435l0.5161743 -11.363281l-17.935272 -0.800354z" fill-rule="nonzero"/><path fill="#000000" fill-opacity="0.0" d="m348.4694 833.39575l107.68503 21.606323l-20.346466 101.4173l-107.68503 -21.606262z" fill-rule="evenodd"/><path fill="#f3f3f3" d="m362.43912 919.7514l12.014191 -59.884888l20.63559 4.140442q6.985779 1.4016113 10.490387 2.9972534q4.910736 2.2124023 7.9176025 6.0507812q3.93161 4.948242 5.024597 11.653687q1.1114197 6.6931763 -0.4960022 14.705383q-1.3677063 6.817322 -4.018219 11.767639q-2.6505127 4.9503174 -5.842224 7.91156q-3.1733093 2.9489746 -6.5448914 4.3442383q-3.3531494 1.3829956 -7.7413635 1.5702515q-4.3851013 0.17193604 -9.823608 -0.9192505l-21.616058 -4.337097zm9.352478 -5.470215l12.776611 2.5635986q5.928711 1.1895142 9.520325 0.76275635q3.5916138 -0.42681885 6.001129 -2.0310059q3.3690186 -2.2563477 5.8996887 -6.688843q2.533783 -4.447876 3.8953247 -11.234497q1.8840332 -9.390991 -0.19937134 -15.052124q-2.0650024 -5.67334 -6.132843 -8.274414q-2.9406128 -1.8649292 -10.002991 -3.2819214l-12.577454 -2.5235596l-9.18042 45.76001z" fill-rule="nonzero"/><path fill="#000000" fill-opacity="0.0" d="m465.46167 854.22723l97.07086 -6.2677l6.677185 103.212585l-97.07089 6.2677z" fill-rule="evenodd"/><path fill="#f3f3f3" d="m515.358 933.09607l-3.4780884 -53.762573l-20.08316 1.2966919l-0.46502686 -7.1880493l48.305634 -3.1190186l0.46502686 7.1880493l-20.161133 1.3018188l3.4780884 53.762573l-8.06134 0.5205078z" fill-rule="nonzero"/></g></svg>